<mxfile host="app.diagrams.net" agent="Mozilla/5.0 (Windows NT 10.0; Win64; x64) AppleWebKit/537.36 (KHTML, like Gecko) Chrome/131.0.0.0 Safari/537.36" version="25.0.3">
  <diagram id="6a731a19-8d31-9384-78a2-239565b7b9f0" name="Page-1">
    <mxGraphModel dx="1755" dy="850" grid="1" gridSize="10" guides="1" tooltips="1" connect="1" arrows="1" fold="1" page="1" pageScale="1" pageWidth="1169" pageHeight="827" background="none" math="0" shadow="0">
      <root>
        <mxCell id="0" />
        <mxCell id="1" parent="0" />
        <mxCell id="1749" value="" style="rounded=1;whiteSpace=wrap;html=1;shadow=0;labelBackgroundColor=none;strokeColor=none;strokeWidth=3;fillColor=#2F5B7C;fontFamily=Helvetica;fontSize=16;fontColor=#FFFFFF;align=center;fontStyle=1;spacing=5;arcSize=7;perimeterSpacing=2;" parent="1" vertex="1">
          <mxGeometry x="120" y="200" width="480" height="460" as="geometry" />
        </mxCell>
        <mxCell id="1771" value="" style="rounded=1;whiteSpace=wrap;html=1;shadow=0;labelBackgroundColor=none;strokeColor=none;strokeWidth=3;fillColor=#12aab5;fontFamily=Helvetica;fontSize=14;fontColor=#FFFFFF;align=center;spacing=5;fontStyle=1;arcSize=7;perimeterSpacing=2;" parent="1" vertex="1">
          <mxGeometry x="160" y="249" width="400" height="361" as="geometry" />
        </mxCell>
        <mxCell id="IyJlJNNr6SmxH8g6B71y-1779" value="&lt;b&gt;&lt;font color=&quot;#ffffff&quot;&gt;PC&lt;/font&gt;&lt;/b&gt;" style="text;html=1;align=left;verticalAlign=middle;whiteSpace=wrap;rounded=0;" vertex="1" parent="1">
          <mxGeometry x="140" y="210" width="60" height="30" as="geometry" />
        </mxCell>
        <mxCell id="IyJlJNNr6SmxH8g6B71y-1780" value="&lt;b&gt;&lt;font color=&quot;#ffffff&quot;&gt;P-Engine&lt;/font&gt;&lt;/b&gt;" style="text;html=1;align=left;verticalAlign=middle;whiteSpace=wrap;rounded=0;" vertex="1" parent="1">
          <mxGeometry x="180" y="260" width="60" height="30" as="geometry" />
        </mxCell>
        <mxCell id="1760" value="" style="rounded=1;whiteSpace=wrap;html=1;shadow=0;labelBackgroundColor=none;strokeColor=none;strokeWidth=3;fillColor=#1699d3;fontFamily=Helvetica;fontSize=14;fontColor=#FFFFFF;align=center;spacing=5;fontStyle=1;arcSize=7;perimeterSpacing=2;" parent="1" vertex="1">
          <mxGeometry x="370" y="320" width="150" height="240" as="geometry" />
        </mxCell>
        <mxCell id="IyJlJNNr6SmxH8g6B71y-1783" value="" style="rounded=1;whiteSpace=wrap;html=1;shadow=0;labelBackgroundColor=none;strokeColor=none;strokeWidth=3;fillColor=#1699d3;fontFamily=Helvetica;fontSize=14;fontColor=#FFFFFF;align=center;spacing=5;fontStyle=1;arcSize=7;perimeterSpacing=2;" vertex="1" parent="1">
          <mxGeometry x="200" y="320" width="140" height="240" as="geometry" />
        </mxCell>
        <mxCell id="IyJlJNNr6SmxH8g6B71y-1784" value="electron" style="rounded=1;whiteSpace=wrap;html=1;shadow=0;labelBackgroundColor=none;strokeColor=default;strokeWidth=3;fillColor=#64bbe2;fontFamily=Helvetica;fontSize=14;fontColor=#FFFFFF;align=center;spacing=5;arcSize=7;perimeterSpacing=2;" vertex="1" parent="1">
          <mxGeometry x="220" y="370" width="100" height="60" as="geometry" />
        </mxCell>
        <mxCell id="IyJlJNNr6SmxH8g6B71y-1785" value="web" style="rounded=1;whiteSpace=wrap;html=1;shadow=0;labelBackgroundColor=none;strokeColor=none;strokeWidth=3;fillColor=#64bbe2;fontFamily=Helvetica;fontSize=14;fontColor=#FFFFFF;align=center;spacing=5;arcSize=7;perimeterSpacing=2;" vertex="1" parent="1">
          <mxGeometry x="220" y="470" width="100" height="60" as="geometry" />
        </mxCell>
        <mxCell id="IyJlJNNr6SmxH8g6B71y-1786" value="&lt;span style=&quot;color: rgb(255, 255, 255); font-size: 14px; font-weight: 700; text-align: center;&quot;&gt;frontend&lt;/span&gt;" style="text;html=1;align=left;verticalAlign=middle;whiteSpace=wrap;rounded=0;" vertex="1" parent="1">
          <mxGeometry x="220" y="330" width="60" height="30" as="geometry" />
        </mxCell>
        <mxCell id="IyJlJNNr6SmxH8g6B71y-1787" value="&lt;span style=&quot;color: rgb(255, 255, 255); font-size: 14px; font-weight: 700; text-align: center;&quot;&gt;backend&lt;/span&gt;" style="text;html=1;align=left;verticalAlign=middle;whiteSpace=wrap;rounded=0;" vertex="1" parent="1">
          <mxGeometry x="390" y="330" width="60" height="30" as="geometry" />
        </mxCell>
        <mxCell id="1763" value="algorithm server" style="rounded=1;whiteSpace=wrap;html=1;shadow=0;labelBackgroundColor=none;strokeColor=#b85450;strokeWidth=3;fillColor=#f8cecc;fontFamily=Helvetica;fontSize=14;align=center;spacing=5;arcSize=7;perimeterSpacing=2;" parent="1" vertex="1">
          <mxGeometry x="390" y="370" width="100" height="60" as="geometry" />
        </mxCell>
        <mxCell id="1762" value="data base" style="rounded=1;whiteSpace=wrap;html=1;shadow=0;labelBackgroundColor=none;strokeColor=#d79b00;strokeWidth=3;fillColor=#ffe6cc;fontFamily=Helvetica;fontSize=14;align=center;spacing=5;arcSize=7;perimeterSpacing=2;" parent="1" vertex="1">
          <mxGeometry x="390" y="470" width="100" height="60" as="geometry" />
        </mxCell>
        <mxCell id="IyJlJNNr6SmxH8g6B71y-1788" value="" style="rounded=1;whiteSpace=wrap;html=1;shadow=0;labelBackgroundColor=none;strokeColor=none;strokeWidth=3;fillColor=#2F5B7C;fontFamily=Helvetica;fontSize=16;fontColor=#FFFFFF;align=center;fontStyle=1;spacing=5;arcSize=7;perimeterSpacing=2;" vertex="1" parent="1">
          <mxGeometry x="120" y="700" width="480" height="460" as="geometry" />
        </mxCell>
        <mxCell id="IyJlJNNr6SmxH8g6B71y-1789" value="" style="rounded=1;whiteSpace=wrap;html=1;shadow=0;labelBackgroundColor=none;strokeColor=none;strokeWidth=3;fillColor=#12aab5;fontFamily=Helvetica;fontSize=14;fontColor=#FFFFFF;align=center;spacing=5;fontStyle=1;arcSize=7;perimeterSpacing=2;" vertex="1" parent="1">
          <mxGeometry x="160" y="749" width="400" height="361" as="geometry" />
        </mxCell>
        <mxCell id="IyJlJNNr6SmxH8g6B71y-1790" value="&lt;b&gt;&lt;font color=&quot;#ffffff&quot;&gt;PC&lt;/font&gt;&lt;/b&gt;" style="text;html=1;align=left;verticalAlign=middle;whiteSpace=wrap;rounded=0;" vertex="1" parent="1">
          <mxGeometry x="140" y="710" width="60" height="30" as="geometry" />
        </mxCell>
        <mxCell id="IyJlJNNr6SmxH8g6B71y-1791" value="&lt;b&gt;&lt;font color=&quot;#ffffff&quot;&gt;P-Engine&lt;/font&gt;&lt;/b&gt;" style="text;html=1;align=left;verticalAlign=middle;whiteSpace=wrap;rounded=0;" vertex="1" parent="1">
          <mxGeometry x="180" y="760" width="60" height="30" as="geometry" />
        </mxCell>
        <mxCell id="IyJlJNNr6SmxH8g6B71y-1792" value="" style="rounded=1;whiteSpace=wrap;html=1;shadow=0;labelBackgroundColor=none;strokeColor=none;strokeWidth=3;fillColor=#1699d3;fontFamily=Helvetica;fontSize=14;fontColor=#FFFFFF;align=center;spacing=5;fontStyle=1;arcSize=7;perimeterSpacing=2;" vertex="1" parent="1">
          <mxGeometry x="370" y="820" width="150" height="240" as="geometry" />
        </mxCell>
        <mxCell id="IyJlJNNr6SmxH8g6B71y-1793" value="" style="rounded=1;whiteSpace=wrap;html=1;shadow=0;labelBackgroundColor=none;strokeColor=default;strokeWidth=3;fillColor=#1699d3;fontFamily=Helvetica;fontSize=14;fontColor=#FFFFFF;align=center;spacing=5;fontStyle=1;arcSize=7;perimeterSpacing=2;dashed=1;" vertex="1" parent="1">
          <mxGeometry x="200" y="820" width="140" height="240" as="geometry" />
        </mxCell>
        <mxCell id="IyJlJNNr6SmxH8g6B71y-1794" value="electron" style="rounded=1;whiteSpace=wrap;html=1;shadow=0;labelBackgroundColor=none;strokeColor=none;strokeWidth=3;fillColor=#64bbe2;fontFamily=Helvetica;fontSize=14;fontColor=#FFFFFF;align=center;spacing=5;arcSize=7;perimeterSpacing=2;" vertex="1" parent="1">
          <mxGeometry x="220" y="870" width="100" height="60" as="geometry" />
        </mxCell>
        <mxCell id="IyJlJNNr6SmxH8g6B71y-1795" value="web" style="rounded=1;whiteSpace=wrap;html=1;shadow=0;labelBackgroundColor=none;strokeColor=none;strokeWidth=3;fillColor=#64bbe2;fontFamily=Helvetica;fontSize=14;fontColor=#FFFFFF;align=center;spacing=5;arcSize=7;perimeterSpacing=2;" vertex="1" parent="1">
          <mxGeometry x="220" y="970" width="100" height="60" as="geometry" />
        </mxCell>
        <mxCell id="IyJlJNNr6SmxH8g6B71y-1796" value="&lt;span style=&quot;color: rgb(255, 255, 255); font-size: 14px; font-weight: 700; text-align: center;&quot;&gt;frontend&lt;/span&gt;" style="text;html=1;align=left;verticalAlign=middle;whiteSpace=wrap;rounded=0;" vertex="1" parent="1">
          <mxGeometry x="220" y="830" width="60" height="30" as="geometry" />
        </mxCell>
        <mxCell id="IyJlJNNr6SmxH8g6B71y-1797" value="&lt;span style=&quot;color: rgb(255, 255, 255); font-size: 14px; font-weight: 700; text-align: center;&quot;&gt;backend&lt;/span&gt;" style="text;html=1;align=left;verticalAlign=middle;whiteSpace=wrap;rounded=0;" vertex="1" parent="1">
          <mxGeometry x="390" y="830" width="60" height="30" as="geometry" />
        </mxCell>
        <mxCell id="IyJlJNNr6SmxH8g6B71y-1840" value="" style="edgeStyle=orthogonalEdgeStyle;rounded=0;orthogonalLoop=1;jettySize=auto;html=1;startArrow=classic;startFill=1;" edge="1" parent="1" source="IyJlJNNr6SmxH8g6B71y-1798" target="IyJlJNNr6SmxH8g6B71y-1799">
          <mxGeometry relative="1" as="geometry" />
        </mxCell>
        <mxCell id="IyJlJNNr6SmxH8g6B71y-1798" value="algorithm server" style="rounded=1;whiteSpace=wrap;html=1;shadow=0;labelBackgroundColor=none;strokeColor=#b85450;strokeWidth=3;fillColor=#f8cecc;fontFamily=Helvetica;fontSize=14;align=center;spacing=5;arcSize=7;perimeterSpacing=2;" vertex="1" parent="1">
          <mxGeometry x="390" y="870" width="100" height="60" as="geometry" />
        </mxCell>
        <mxCell id="IyJlJNNr6SmxH8g6B71y-1799" value="data base" style="rounded=1;whiteSpace=wrap;html=1;shadow=0;labelBackgroundColor=none;strokeColor=#d79b00;strokeWidth=3;fillColor=#ffe6cc;fontFamily=Helvetica;fontSize=14;align=center;spacing=5;arcSize=7;perimeterSpacing=2;" vertex="1" parent="1">
          <mxGeometry x="390" y="970" width="100" height="60" as="geometry" />
        </mxCell>
        <mxCell id="IyJlJNNr6SmxH8g6B71y-1812" value="" style="rounded=1;whiteSpace=wrap;html=1;shadow=0;labelBackgroundColor=none;strokeColor=none;strokeWidth=3;fillColor=#2F5B7C;fontFamily=Helvetica;fontSize=16;fontColor=#FFFFFF;align=center;fontStyle=1;spacing=5;arcSize=7;perimeterSpacing=2;" vertex="1" parent="1">
          <mxGeometry x="120" y="1280" width="480" height="460" as="geometry" />
        </mxCell>
        <mxCell id="IyJlJNNr6SmxH8g6B71y-1813" value="" style="rounded=1;whiteSpace=wrap;html=1;shadow=0;labelBackgroundColor=none;strokeColor=none;strokeWidth=3;fillColor=#12aab5;fontFamily=Helvetica;fontSize=14;fontColor=#FFFFFF;align=center;spacing=5;fontStyle=1;arcSize=7;perimeterSpacing=2;" vertex="1" parent="1">
          <mxGeometry x="160" y="1329" width="400" height="361" as="geometry" />
        </mxCell>
        <mxCell id="IyJlJNNr6SmxH8g6B71y-1814" value="&lt;b&gt;&lt;font color=&quot;#ffffff&quot;&gt;PC&lt;/font&gt;&lt;/b&gt;" style="text;html=1;align=left;verticalAlign=middle;whiteSpace=wrap;rounded=0;" vertex="1" parent="1">
          <mxGeometry x="140" y="1290" width="60" height="30" as="geometry" />
        </mxCell>
        <mxCell id="IyJlJNNr6SmxH8g6B71y-1815" value="&lt;b&gt;&lt;font color=&quot;#ffffff&quot;&gt;P-Engine&lt;/font&gt;&lt;/b&gt;" style="text;html=1;align=left;verticalAlign=middle;whiteSpace=wrap;rounded=0;" vertex="1" parent="1">
          <mxGeometry x="180" y="1340" width="60" height="30" as="geometry" />
        </mxCell>
        <mxCell id="IyJlJNNr6SmxH8g6B71y-1816" value="" style="rounded=1;whiteSpace=wrap;html=1;shadow=0;labelBackgroundColor=none;strokeColor=none;strokeWidth=3;fillColor=#1699d3;fontFamily=Helvetica;fontSize=14;fontColor=#FFFFFF;align=center;spacing=5;fontStyle=1;arcSize=7;perimeterSpacing=2;" vertex="1" parent="1">
          <mxGeometry x="370" y="1400" width="150" height="240" as="geometry" />
        </mxCell>
        <mxCell id="IyJlJNNr6SmxH8g6B71y-1817" value="" style="rounded=1;whiteSpace=wrap;html=1;shadow=0;labelBackgroundColor=none;strokeColor=default;strokeWidth=3;fillColor=#1699d3;fontFamily=Helvetica;fontSize=14;fontColor=#FFFFFF;align=center;spacing=5;fontStyle=1;arcSize=7;perimeterSpacing=2;dashed=1;" vertex="1" parent="1">
          <mxGeometry x="200" y="1400" width="140" height="240" as="geometry" />
        </mxCell>
        <mxCell id="IyJlJNNr6SmxH8g6B71y-1818" value="electron" style="rounded=1;whiteSpace=wrap;html=1;shadow=0;labelBackgroundColor=none;strokeColor=none;strokeWidth=3;fillColor=#64bbe2;fontFamily=Helvetica;fontSize=14;fontColor=#FFFFFF;align=center;spacing=5;arcSize=7;perimeterSpacing=2;" vertex="1" parent="1">
          <mxGeometry x="220" y="1450" width="100" height="60" as="geometry" />
        </mxCell>
        <mxCell id="IyJlJNNr6SmxH8g6B71y-1819" value="web" style="rounded=1;whiteSpace=wrap;html=1;shadow=0;labelBackgroundColor=none;strokeColor=none;strokeWidth=3;fillColor=#64bbe2;fontFamily=Helvetica;fontSize=14;fontColor=#FFFFFF;align=center;spacing=5;arcSize=7;perimeterSpacing=2;" vertex="1" parent="1">
          <mxGeometry x="220" y="1550" width="100" height="60" as="geometry" />
        </mxCell>
        <mxCell id="IyJlJNNr6SmxH8g6B71y-1820" value="&lt;span style=&quot;color: rgb(255, 255, 255); font-size: 14px; font-weight: 700; text-align: center;&quot;&gt;frontend&lt;/span&gt;" style="text;html=1;align=left;verticalAlign=middle;whiteSpace=wrap;rounded=0;" vertex="1" parent="1">
          <mxGeometry x="220" y="1410" width="60" height="30" as="geometry" />
        </mxCell>
        <mxCell id="IyJlJNNr6SmxH8g6B71y-1821" value="&lt;span style=&quot;color: rgb(255, 255, 255); font-size: 14px; font-weight: 700; text-align: center;&quot;&gt;backend&lt;/span&gt;" style="text;html=1;align=left;verticalAlign=middle;whiteSpace=wrap;rounded=0;" vertex="1" parent="1">
          <mxGeometry x="390" y="1410" width="60" height="30" as="geometry" />
        </mxCell>
        <mxCell id="IyJlJNNr6SmxH8g6B71y-1841" value="" style="edgeStyle=orthogonalEdgeStyle;rounded=0;orthogonalLoop=1;jettySize=auto;html=1;startArrow=classic;startFill=1;" edge="1" parent="1" source="IyJlJNNr6SmxH8g6B71y-1822" target="IyJlJNNr6SmxH8g6B71y-1823">
          <mxGeometry relative="1" as="geometry" />
        </mxCell>
        <mxCell id="IyJlJNNr6SmxH8g6B71y-1844" style="edgeStyle=orthogonalEdgeStyle;rounded=0;orthogonalLoop=1;jettySize=auto;html=1;exitX=0;exitY=0.5;exitDx=0;exitDy=0;entryX=1;entryY=0.75;entryDx=0;entryDy=0;" edge="1" parent="1" source="IyJlJNNr6SmxH8g6B71y-1822" target="IyJlJNNr6SmxH8g6B71y-1784">
          <mxGeometry relative="1" as="geometry">
            <Array as="points">
              <mxPoint x="350" y="1480" />
              <mxPoint x="350" y="416" />
            </Array>
          </mxGeometry>
        </mxCell>
        <mxCell id="IyJlJNNr6SmxH8g6B71y-1822" value="algorithm server" style="rounded=1;whiteSpace=wrap;html=1;shadow=0;labelBackgroundColor=none;strokeColor=#b85450;strokeWidth=3;fillColor=#f8cecc;fontFamily=Helvetica;fontSize=14;align=center;spacing=5;arcSize=7;perimeterSpacing=2;" vertex="1" parent="1">
          <mxGeometry x="390" y="1450" width="100" height="60" as="geometry" />
        </mxCell>
        <mxCell id="IyJlJNNr6SmxH8g6B71y-1823" value="data base" style="rounded=1;whiteSpace=wrap;html=1;shadow=0;labelBackgroundColor=none;strokeColor=#d79b00;strokeWidth=3;fillColor=#ffe6cc;fontFamily=Helvetica;fontSize=14;align=center;spacing=5;arcSize=7;perimeterSpacing=2;" vertex="1" parent="1">
          <mxGeometry x="390" y="1550" width="100" height="60" as="geometry" />
        </mxCell>
        <mxCell id="IyJlJNNr6SmxH8g6B71y-1824" value="&lt;b&gt;.&lt;/b&gt;&lt;div&gt;&lt;b&gt;.&lt;/b&gt;&lt;/div&gt;&lt;div&gt;&lt;b&gt;.&lt;/b&gt;&lt;/div&gt;" style="text;html=1;align=center;verticalAlign=middle;whiteSpace=wrap;rounded=0;fontSize=24;" vertex="1" parent="1">
          <mxGeometry x="330" y="1180" width="60" height="70" as="geometry" />
        </mxCell>
        <mxCell id="IyJlJNNr6SmxH8g6B71y-1826" value="computational grid : &lt;br&gt;&amp;nbsp; a system of high-performance computers &lt;br&gt;&amp;nbsp; that are connected over the internet &lt;br&gt;&amp;nbsp; to share computing resources." style="rounded=1;whiteSpace=wrap;html=1;shadow=0;labelBackgroundColor=none;strokeColor=#b85450;strokeWidth=3;fillColor=#f8cecc;fontFamily=Helvetica;fontSize=14;align=left;spacing=5;arcSize=7;perimeterSpacing=2;" vertex="1" parent="1">
          <mxGeometry x="680" y="200" width="280" height="80" as="geometry" />
        </mxCell>
        <mxCell id="IyJlJNNr6SmxH8g6B71y-1827" value="data grid : &lt;br&gt;&amp;nbsp; data grid is a grid computing network &lt;br&gt;&amp;nbsp; that connects multiple computers together&amp;nbsp; &amp;nbsp; to enable huge amounts of data storage." style="rounded=1;whiteSpace=wrap;html=1;shadow=0;labelBackgroundColor=none;strokeColor=#d79b00;strokeWidth=3;fillColor=#ffe6cc;fontFamily=Helvetica;fontSize=14;align=left;spacing=5;arcSize=7;perimeterSpacing=2;" vertex="1" parent="1">
          <mxGeometry x="680" y="320" width="280" height="80" as="geometry" />
        </mxCell>
        <mxCell id="IyJlJNNr6SmxH8g6B71y-1828" value="primary&amp;nbsp;" style="rounded=1;whiteSpace=wrap;html=1;shadow=0;labelBackgroundColor=none;strokeColor=default;strokeWidth=3;fillColor=#1699d3;fontFamily=Helvetica;fontSize=14;fontColor=#FFFFFF;align=center;spacing=5;fontStyle=1;arcSize=7;perimeterSpacing=2;" vertex="1" parent="1">
          <mxGeometry x="680" y="440" width="160" height="40" as="geometry" />
        </mxCell>
        <mxCell id="IyJlJNNr6SmxH8g6B71y-1829" value="secondary" style="rounded=1;whiteSpace=wrap;html=1;shadow=0;labelBackgroundColor=none;strokeColor=default;strokeWidth=3;fillColor=#1699d3;fontFamily=Helvetica;fontSize=14;fontColor=#FFFFFF;align=center;spacing=5;fontStyle=1;arcSize=7;perimeterSpacing=2;dashed=1;" vertex="1" parent="1">
          <mxGeometry x="680" y="520" width="160" height="40" as="geometry" />
        </mxCell>
        <mxCell id="IyJlJNNr6SmxH8g6B71y-1831" value="&lt;div style=&quot;text-align: left;&quot;&gt;&lt;span style=&quot;background-color: initial;&quot;&gt;모든 pc 가 primary / secondary 가 될 수 있으며,&amp;nbsp;&lt;/span&gt;&lt;/div&gt;&lt;div style=&quot;text-align: left;&quot;&gt;&lt;span style=&quot;background-color: initial;&quot;&gt;admin 이 이 권한을 조정할 수 있다.&lt;/span&gt;&lt;/div&gt;&lt;div style=&quot;text-align: left;&quot;&gt;&lt;span style=&quot;background-color: initial;&quot;&gt;&lt;br&gt;&lt;/span&gt;&lt;/div&gt;&lt;div style=&quot;text-align: left;&quot;&gt;&lt;span style=&quot;background-color: initial;&quot;&gt;primary 가 ui (electron / web) 을 통해 interaction 을 하면&lt;br&gt;secondary 가 각자 계산 및 저장에 자신의 server 와 data base 를 사용한다.&amp;nbsp;&lt;/span&gt;&lt;/div&gt;&lt;div style=&quot;text-align: left;&quot;&gt;&lt;span style=&quot;background-color: initial;&quot;&gt;&lt;br&gt;&lt;/span&gt;&lt;/div&gt;&lt;div style=&quot;text-align: left;&quot;&gt;&lt;span style=&quot;background-color: initial;&quot;&gt;각 상황은 adim 의 권한에 따라 primary 만 그 결과를 rendering 하여 확인 할 수 있거나,&lt;br&gt;secondary 를 포함한 모든 pc 에서 확인할 수 있다.&lt;/span&gt;&lt;/div&gt;&lt;div style=&quot;text-align: left;&quot;&gt;&lt;span style=&quot;background-color: initial;&quot;&gt;&lt;br&gt;&lt;/span&gt;&lt;/div&gt;&lt;div style=&quot;text-align: left;&quot;&gt;&lt;span style=&quot;background-color: initial;&quot;&gt;p-engine 을 설치하고 admin 설정만 한다면,&lt;br&gt;사내 pc 에서 모두 동일한 algorithm 과 database 를 활용하고&lt;br&gt;동일한 websocket 으로 서로 통신하면서&lt;/span&gt;&lt;/div&gt;&lt;div style=&quot;text-align: left;&quot;&gt;&lt;span style=&quot;background-color: initial;&quot;&gt;등록된 pc 들을 통하여 하나의&amp;nbsp; 거대한 가상의 슈퍼컴퓨터를 구축한다.&lt;/span&gt;&lt;/div&gt;&lt;div style=&quot;text-align: left;&quot;&gt;&lt;span style=&quot;background-color: initial;&quot;&gt;&lt;br&gt;&lt;/span&gt;&lt;/div&gt;&lt;div style=&quot;text-align: left;&quot;&gt;&lt;span style=&quot;background-color: initial;&quot;&gt;이 슈퍼컴퓨터가 데이터 유출로부터 안전한 인트라 넷 안에서&lt;br&gt;더 빠른 계산 더 많은 용량을 저장할 수 있게 한다.&lt;/span&gt;&lt;/div&gt;&lt;div style=&quot;text-align: left;&quot;&gt;&lt;span style=&quot;background-color: initial;&quot;&gt;&lt;br&gt;&lt;/span&gt;&lt;/div&gt;" style="text;html=1;align=center;verticalAlign=middle;whiteSpace=wrap;rounded=0;" vertex="1" parent="1">
          <mxGeometry x="680" y="570" width="480" height="250" as="geometry" />
        </mxCell>
        <mxCell id="IyJlJNNr6SmxH8g6B71y-1833" value="" style="endArrow=classic;html=1;rounded=0;entryX=0;entryY=0.5;entryDx=0;entryDy=0;exitX=1;exitY=0.5;exitDx=0;exitDy=0;startArrow=classic;startFill=1;" edge="1" parent="1" source="IyJlJNNr6SmxH8g6B71y-1784" target="1763">
          <mxGeometry width="50" height="50" relative="1" as="geometry">
            <mxPoint x="342" y="379" as="sourcePoint" />
            <mxPoint x="420" y="520" as="targetPoint" />
          </mxGeometry>
        </mxCell>
        <mxCell id="IyJlJNNr6SmxH8g6B71y-1834" value="" style="endArrow=classic;html=1;rounded=0;exitX=0.5;exitY=1;exitDx=0;exitDy=0;startArrow=classic;startFill=1;" edge="1" parent="1" source="1763" target="1762">
          <mxGeometry width="50" height="50" relative="1" as="geometry">
            <mxPoint x="332" y="410" as="sourcePoint" />
            <mxPoint x="398" y="410" as="targetPoint" />
          </mxGeometry>
        </mxCell>
        <mxCell id="IyJlJNNr6SmxH8g6B71y-1836" style="edgeStyle=orthogonalEdgeStyle;rounded=0;orthogonalLoop=1;jettySize=auto;html=1;exitX=1;exitY=0.5;exitDx=0;exitDy=0;entryX=1;entryY=0.5;entryDx=0;entryDy=0;startArrow=classic;startFill=1;" edge="1" parent="1" source="1763" target="IyJlJNNr6SmxH8g6B71y-1798">
          <mxGeometry relative="1" as="geometry">
            <Array as="points">
              <mxPoint x="530" y="400" />
              <mxPoint x="530" y="900" />
            </Array>
          </mxGeometry>
        </mxCell>
        <mxCell id="IyJlJNNr6SmxH8g6B71y-1842" value="" style="edgeStyle=elbowEdgeStyle;elbow=horizontal;endArrow=classic;html=1;curved=0;rounded=0;endSize=8;startSize=8;entryX=1;entryY=0.5;entryDx=0;entryDy=0;" edge="1" parent="1" target="IyJlJNNr6SmxH8g6B71y-1822">
          <mxGeometry width="50" height="50" relative="1" as="geometry">
            <mxPoint x="530" y="900" as="sourcePoint" />
            <mxPoint x="620" y="1260" as="targetPoint" />
            <Array as="points">
              <mxPoint x="530" y="1190" />
            </Array>
          </mxGeometry>
        </mxCell>
        <mxCell id="IyJlJNNr6SmxH8g6B71y-1843" value="&lt;div style=&quot;&quot;&gt;&lt;div style=&quot;text-align: left;&quot;&gt;&lt;span style=&quot;background-color: initial;&quot;&gt;websocket 으로 통신&lt;/span&gt;&lt;/div&gt;&lt;div style=&quot;text-align: left;&quot;&gt;&lt;br&gt;&lt;/div&gt;&lt;/div&gt;&lt;div style=&quot;text-align: left;&quot;&gt;electron 에서 지시를 내리면&lt;/div&gt;&lt;div style=&quot;text-align: left;&quot;&gt;algorithm server 가 이행&lt;/div&gt;&lt;div style=&quot;text-align: left;&quot;&gt;&lt;br&gt;&lt;/div&gt;&lt;div style=&quot;text-align: left;&quot;&gt;algorithm server 는 필요에 따라&lt;/div&gt;&lt;div style=&quot;text-align: left;&quot;&gt;data base 에 접근하여&lt;/div&gt;&lt;div style=&quot;text-align: left;&quot;&gt;읽고 쓰기를 수행&lt;/div&gt;&lt;div style=&quot;text-align: left;&quot;&gt;&lt;br&gt;&lt;/div&gt;&lt;div style=&quot;text-align: left;&quot;&gt;대용량 계산인 경우&lt;/div&gt;&lt;div style=&quot;text-align: left;&quot;&gt;computational grid 를 통하여&lt;/div&gt;&lt;div style=&quot;text-align: left;&quot;&gt;secondary server 에 지시&lt;/div&gt;&lt;div style=&quot;text-align: left;&quot;&gt;&lt;br&gt;&lt;/div&gt;&lt;div style=&quot;text-align: left;&quot;&gt;대용량 데이터인 경우&lt;/div&gt;&lt;div style=&quot;text-align: left;&quot;&gt;data grid 를 통하여&lt;/div&gt;&lt;div style=&quot;text-align: left;&quot;&gt;secondary server 에 저장&lt;/div&gt;&lt;div style=&quot;text-align: left;&quot;&gt;&lt;br&gt;&lt;/div&gt;&lt;div style=&quot;text-align: left;&quot;&gt;secondary server 는 연산의 진척을&lt;/div&gt;&lt;div style=&quot;text-align: left;&quot;&gt;primary server 에 전달&lt;/div&gt;&lt;div style=&quot;text-align: left;&quot;&gt;&lt;br&gt;&lt;/div&gt;&lt;div style=&quot;text-align: left;&quot;&gt;각 server 는&amp;nbsp;&lt;span style=&quot;background-color: initial;&quot;&gt;각각의 연산의 진척을&lt;/span&gt;&lt;/div&gt;&lt;div style=&quot;text-align: left;&quot;&gt;primary 의 frontend 에 전달 및 rendering&lt;/div&gt;&lt;div style=&quot;text-align: left;&quot;&gt;&lt;span style=&quot;background-color: initial;&quot;&gt;&lt;br&gt;&lt;/span&gt;&lt;/div&gt;" style="text;html=1;align=center;verticalAlign=middle;whiteSpace=wrap;rounded=0;" vertex="1" parent="1">
          <mxGeometry x="640" y="1150" width="240" height="360" as="geometry" />
        </mxCell>
        <mxCell id="IyJlJNNr6SmxH8g6B71y-1845" style="edgeStyle=orthogonalEdgeStyle;rounded=0;orthogonalLoop=1;jettySize=auto;html=1;entryX=1;entryY=0.25;entryDx=0;entryDy=0;" edge="1" parent="1" target="IyJlJNNr6SmxH8g6B71y-1784">
          <mxGeometry relative="1" as="geometry">
            <mxPoint x="390" y="900" as="sourcePoint" />
            <mxPoint x="340" y="-160" as="targetPoint" />
            <Array as="points">
              <mxPoint x="368" y="900" />
              <mxPoint x="368" y="384" />
            </Array>
          </mxGeometry>
        </mxCell>
      </root>
    </mxGraphModel>
  </diagram>
</mxfile>
